<svg width="512" height="512" viewBox="0 0 512 512" fill="none" xmlns="http://www.w3.org/2000/svg" xmlns:xlink="http://www.w3.org/1999/xlink">
<rect width="512" height="512" fill="#F4F6FA"/>
<path fill-rule="evenodd" clip-rule="evenodd" d="M153.006 157.857C150.044 156.618 146.898 155.999 143.752 155.999C140.607 155.999 137.457 156.619 134.495 157.857L81.7623 179.9C78.9636 181.07 76.4368 182.747 74.2905 184.821L101.499 212.03C112.397 201.281 127.311 194.656 143.752 194.656C154.484 194.656 164.562 197.478 173.299 202.428C176.967 204.506 181.655 204.205 184.622 201.21L196.876 188.845C201.112 184.569 199.674 177.365 194.121 175.043L153.006 157.857Z" fill="#EEC000"/>
<path fill-rule="evenodd" clip-rule="evenodd" d="M83.3059 255.621C83.3156 238.538 90.2843 223.097 101.506 212.029L74.2975 184.82C71.9005 187.138 69.9787 189.949 68.6839 193.104L46.8405 246.319C45.6182 249.297 45.0047 252.459 45 255.621C44.9954 258.807 45.6006 261.989 46.8323 264.99L68.6756 318.205C69.9433 321.293 71.8116 324.053 74.1386 326.342L101.348 299.132C90.2064 288.066 83.3059 272.643 83.3059 255.621Z" fill="#004AAD"/>
<path fill-rule="evenodd" clip-rule="evenodd" d="M143.751 316.649C127.234 316.649 112.264 309.964 101.354 299.128L74.144 326.339C76.3221 328.481 78.9019 330.21 81.7664 331.407L134.499 353.451C137.461 354.689 140.606 355.308 143.751 355.308C146.897 355.308 150.046 354.694 153.009 353.456L194.124 336.269C199.677 333.947 201.115 326.743 196.878 322.468L184.624 310.101C181.656 307.106 176.969 306.805 173.3 308.883C164.564 313.832 154.482 316.649 143.751 316.649Z" fill="#30B700"/>
<path d="M209.807 323.083H204V320.5H218.254V323.083H212.447V333.414H209.807V323.083Z" fill="#0A192F"/>
<path d="M219.748 320.5H222.388V324.46C222.657 324.162 223.021 323.932 223.479 323.772C223.948 323.599 224.546 323.513 225.274 323.513H226.347C227.098 323.513 227.778 323.64 228.388 323.892C229.01 324.133 229.538 324.472 229.972 324.908C230.418 325.344 230.758 325.872 230.993 326.492C231.239 327.1 231.362 327.772 231.362 328.507V333.414H228.723V328.507C228.723 327.806 228.506 327.232 228.072 326.785C227.638 326.326 227.063 326.096 226.347 326.096H224.763C224.048 326.096 223.473 326.326 223.039 326.785C222.605 327.232 222.388 327.806 222.388 328.507V333.414H219.748V320.5Z" fill="#0A192F"/>
<path d="M243.415 333.414H237.872C237.121 333.414 236.434 333.299 235.813 333.07C235.203 332.828 234.675 332.496 234.229 332.071C233.795 331.635 233.455 331.118 233.208 330.521C232.974 329.913 232.856 329.241 232.856 328.507C232.856 327.772 232.974 327.106 233.208 326.509C233.455 325.901 233.795 325.384 234.229 324.96C234.675 324.523 235.203 324.191 235.813 323.961C236.434 323.72 237.121 323.599 237.872 323.599H240.159C240.91 323.599 241.591 323.72 242.201 323.961C242.822 324.191 243.35 324.523 243.784 324.96C244.23 325.384 244.57 325.901 244.805 326.509C245.051 327.106 245.175 327.772 245.175 328.507V329.626H235.742C235.93 330.005 236.206 330.303 236.569 330.521C236.933 330.728 237.367 330.831 237.872 330.831H243.415V333.414ZM242.535 327.56C242.371 327.123 242.095 326.785 241.708 326.544C241.333 326.303 240.875 326.182 240.335 326.182H237.872C237.332 326.182 236.869 326.303 236.481 326.544C236.106 326.785 235.836 327.123 235.672 327.56H242.535Z" fill="#0A192F"/>
<path d="M251.335 320.5H261.049C261.647 320.5 262.187 320.592 262.668 320.775C263.16 320.959 263.577 321.223 263.917 321.568C264.269 321.9 264.539 322.308 264.727 322.79C264.914 323.261 265.008 323.789 265.008 324.374C265.008 324.868 264.938 325.304 264.797 325.683C264.668 326.05 264.474 326.372 264.216 326.647C264.709 326.911 265.096 327.284 265.378 327.766C265.659 328.237 265.8 328.828 265.8 329.54C265.8 330.125 265.706 330.659 265.518 331.141C265.331 331.612 265.061 332.019 264.709 332.364C264.369 332.696 263.952 332.955 263.459 333.138C262.978 333.322 262.439 333.414 261.84 333.414H251.335V320.5ZM253.974 323.083V325.752H261.049C261.447 325.752 261.764 325.62 261.999 325.356C262.245 325.092 262.368 324.764 262.368 324.374C262.368 323.984 262.245 323.674 261.999 323.444C261.764 323.203 261.447 323.083 261.049 323.083H253.974ZM261.84 330.831C262.239 330.831 262.556 330.716 262.791 330.487C263.037 330.246 263.16 329.93 263.16 329.54C263.16 329.149 263.037 328.822 262.791 328.558C262.556 328.294 262.239 328.162 261.84 328.162H253.974V330.831H261.84Z" fill="#0A192F"/>
<path d="M270.025 320.5V333.414H267.386V320.5H270.025Z" fill="#0A192F"/>
<path d="M276.625 333.5C275.874 333.5 275.187 333.379 274.566 333.138C273.956 332.886 273.428 332.542 272.982 332.105C272.548 331.669 272.207 331.147 271.961 330.538C271.726 329.919 271.609 329.241 271.609 328.507C271.609 327.772 271.726 327.1 271.961 326.492C272.207 325.872 272.548 325.344 272.982 324.908C273.428 324.472 273.956 324.133 274.566 323.892C275.187 323.64 275.874 323.513 276.625 323.513H279.264C280.015 323.513 280.695 323.64 281.306 323.892C281.927 324.133 282.455 324.472 282.889 324.908C283.335 325.344 283.675 325.872 283.91 326.492C284.156 327.1 284.28 327.772 284.28 328.507C284.28 329.241 284.156 329.919 283.91 330.538C283.675 331.147 283.335 331.669 282.889 332.105C282.455 332.542 281.927 332.886 281.306 333.138C280.695 333.379 280.015 333.5 279.264 333.5H276.625ZM276.625 326.096C275.909 326.096 275.334 326.326 274.9 326.785C274.466 327.232 274.249 327.806 274.249 328.507C274.249 329.207 274.466 329.787 274.9 330.246C275.334 330.693 275.909 330.917 276.625 330.917H279.264C279.98 330.917 280.555 330.693 280.989 330.246C281.423 329.787 281.64 329.207 281.64 328.507C281.64 327.806 281.423 327.232 280.989 326.785C280.555 326.326 279.98 326.096 279.264 326.096H276.625Z" fill="#0A192F"/>
<path d="M296.243 333.414H290.699C289.948 333.414 289.262 333.299 288.64 333.07C288.03 332.828 287.502 332.496 287.057 332.071C286.622 331.635 286.282 331.118 286.036 330.521C285.801 329.913 285.684 329.241 285.684 328.507C285.684 327.772 285.801 327.106 286.036 326.509C286.282 325.901 286.622 325.384 287.057 324.96C287.502 324.523 288.03 324.191 288.64 323.961C289.262 323.72 289.948 323.599 290.699 323.599H296.243V326.182H290.699C289.984 326.182 289.409 326.394 288.975 326.819C288.541 327.244 288.324 327.806 288.324 328.507C288.324 329.207 288.541 329.769 288.975 330.194C289.409 330.619 289.984 330.831 290.699 330.831H296.243V333.414Z" fill="#0A192F"/>
<path d="M300.375 320.5V329.436L305.548 323.599H309.068L304.704 328.524L309.174 333.414H305.636L302.962 330.487L300.375 333.414H297.735V320.5H300.375Z" fill="#0A192F"/>
<path d="M319.649 333.414H314.106C313.355 333.414 312.669 333.299 312.047 333.07C311.437 332.828 310.909 332.496 310.463 332.071C310.029 331.635 309.689 331.118 309.442 330.521C309.208 329.913 309.09 329.241 309.09 328.507C309.09 327.772 309.208 327.106 309.442 326.509C309.689 325.901 310.029 325.384 310.463 324.96C310.909 324.523 311.437 324.191 312.047 323.961C312.669 323.72 313.355 323.599 314.106 323.599H319.649V326.182H314.106C313.39 326.182 312.815 326.394 312.381 326.819C311.947 327.244 311.73 327.806 311.73 328.507C311.73 329.207 311.947 329.769 312.381 330.194C312.815 330.619 313.39 330.831 314.106 330.831H319.649V333.414Z" fill="#0A192F"/>
<path d="M321.141 320.5H323.781V324.46C324.051 324.162 324.415 323.932 324.872 323.772C325.341 323.599 325.94 323.513 326.667 323.513H327.741C328.491 323.513 329.172 323.64 329.782 323.892C330.404 324.133 330.932 324.472 331.366 324.908C331.812 325.344 332.152 325.872 332.386 326.492C332.633 327.1 332.756 327.772 332.756 328.507V333.414H330.116V328.507C330.116 327.806 329.899 327.232 329.465 326.785C329.031 326.326 328.456 326.096 327.741 326.096H326.157C325.441 326.096 324.866 326.326 324.432 326.785C323.998 327.232 323.781 327.806 323.781 328.507V333.414H321.141V320.5Z" fill="#0A192F"/>
<path d="M334.25 330.211C334.25 329.167 334.525 328.392 335.077 327.887C335.628 327.382 336.42 327.129 337.452 327.129H343.489C343.289 326.75 343.013 326.498 342.661 326.372C342.309 326.245 341.887 326.182 341.394 326.182H335.763V323.599H341.746C342.415 323.599 343.031 323.691 343.594 323.875C344.169 324.058 344.662 324.334 345.072 324.701C345.495 325.057 345.823 325.511 346.058 326.062C346.292 326.613 346.41 327.255 346.41 327.99V333.414H344.474L344.104 332.191C343.882 332.605 343.559 332.926 343.137 333.156C342.714 333.385 342.133 333.5 341.394 333.5H337.452C336.42 333.5 335.628 333.213 335.077 332.639C334.525 332.065 334.25 331.256 334.25 330.211ZM338.121 329.368C337.699 329.368 337.388 329.436 337.189 329.574C336.989 329.712 336.889 329.901 336.889 330.142C336.889 330.383 336.989 330.573 337.189 330.711C337.388 330.848 337.699 330.917 338.121 330.917H341.394C341.958 330.917 342.421 330.779 342.785 330.504C343.16 330.217 343.43 329.838 343.594 329.368H338.121Z" fill="#0A192F"/>
<path d="M348.174 321.791C348.174 321.401 348.291 321.091 348.526 320.862C348.772 320.621 349.095 320.5 349.494 320.5C349.893 320.5 350.209 320.621 350.444 320.862C350.69 321.091 350.814 321.401 350.814 321.791C350.814 322.182 350.69 322.497 350.444 322.738C350.209 322.968 349.893 323.083 349.494 323.083C349.095 323.083 348.772 322.968 348.526 322.738C348.291 322.497 348.174 322.182 348.174 321.791ZM348.174 323.599H350.814V333.414H348.174V323.599Z" fill="#0A192F"/>
<path d="M354.509 323.599L354.896 324.891C355.154 324.455 355.53 324.116 356.023 323.875C356.527 323.634 357.219 323.513 358.099 323.513H359.173C359.923 323.513 360.604 323.64 361.214 323.892C361.836 324.133 362.364 324.472 362.798 324.908C363.243 325.344 363.584 325.872 363.818 326.492C364.065 327.1 364.188 327.772 364.188 328.507V333.414H361.548V328.507C361.548 327.806 361.331 327.232 360.897 326.785C360.463 326.326 359.888 326.096 359.173 326.096H357.589C356.873 326.096 356.298 326.326 355.864 326.785C355.43 327.232 355.213 327.806 355.213 328.507V333.414H352.573V323.599H354.509Z" fill="#0A192F"/>
<path d="M370.429 320.5H380.548C381.205 320.5 381.78 320.621 382.272 320.862C382.777 321.103 383.193 321.424 383.522 321.826C383.85 322.228 384.097 322.692 384.261 323.221C384.425 323.749 384.507 324.305 384.507 324.891C384.507 325.476 384.425 326.033 384.261 326.561C384.097 327.089 383.85 327.554 383.522 327.956C383.193 328.357 382.777 328.679 382.272 328.92C381.78 329.161 381.205 329.281 380.548 329.281H373.069V333.414H370.429V320.5ZM373.069 323.083V326.699H380.548C380.818 326.699 381.035 326.641 381.199 326.526C381.375 326.412 381.51 326.268 381.604 326.096C381.697 325.912 381.762 325.717 381.797 325.511C381.844 325.292 381.868 325.086 381.868 324.891C381.868 324.696 381.844 324.495 381.797 324.288C381.762 324.07 381.697 323.875 381.604 323.703C381.51 323.519 381.375 323.37 381.199 323.255C381.035 323.14 380.818 323.083 380.548 323.083H373.069Z" fill="#0A192F"/>
<path d="M388.724 320.5V333.414H386.085V320.5H388.724Z" fill="#0A192F"/>
<path d="M390.308 330.211C390.308 329.167 390.584 328.392 391.135 327.887C391.687 327.382 392.479 327.129 393.511 327.129H399.547C399.348 326.75 399.072 326.498 398.72 326.372C398.368 326.245 397.946 326.182 397.453 326.182H391.822V323.599H397.805C398.474 323.599 399.09 323.691 399.653 323.875C400.228 324.058 400.72 324.334 401.131 324.701C401.553 325.057 401.882 325.511 402.116 326.062C402.351 326.613 402.468 327.255 402.468 327.99V333.414H400.533L400.163 332.191C399.94 332.605 399.617 332.926 399.195 333.156C398.773 333.385 398.192 333.5 397.453 333.5H393.511C392.479 333.5 391.687 333.213 391.135 332.639C390.584 332.065 390.308 331.256 390.308 330.211ZM394.18 329.368C393.757 329.368 393.447 329.436 393.247 329.574C393.048 329.712 392.948 329.901 392.948 330.142C392.948 330.383 393.048 330.573 393.247 330.711C393.447 330.848 393.757 330.917 394.18 330.917H397.453C398.016 330.917 398.479 330.779 398.843 330.504C399.219 330.217 399.488 329.838 399.653 329.368H394.18Z" fill="#0A192F"/>
<path d="M406.872 328.524C406.872 329.327 407.06 329.913 407.435 330.28C407.811 330.647 408.409 330.831 409.23 330.831H413.207V333.414H409.23C408.456 333.414 407.758 333.305 407.136 333.087C406.526 332.857 406.004 332.53 405.57 332.105C405.136 331.681 404.801 331.17 404.567 330.573C404.344 329.964 404.232 329.281 404.232 328.524V321.361H406.872V323.599H412.151V325.838H406.872V328.524Z" fill="#0A192F"/>
<path d="M414.698 333.414V324.805C414.71 324.081 414.833 323.45 415.068 322.911C415.314 322.371 415.643 321.923 416.053 321.568C416.464 321.212 416.951 320.948 417.514 320.775C418.089 320.592 418.705 320.5 419.362 320.5H422.617V322.911H419.714C419.397 322.911 419.104 322.939 418.834 322.997C418.564 323.043 418.329 323.134 418.13 323.272C417.93 323.41 417.766 323.605 417.637 323.858C417.508 324.099 417.42 324.414 417.373 324.805H421.561V327.043H417.338V333.414H414.698Z" fill="#0A192F"/>
<path d="M427.907 333.5C427.156 333.5 426.47 333.379 425.848 333.138C425.238 332.886 424.71 332.542 424.264 332.105C423.83 331.669 423.49 331.147 423.244 330.538C423.009 329.919 422.892 329.241 422.892 328.507C422.892 327.772 423.009 327.1 423.244 326.492C423.49 325.872 423.83 325.344 424.264 324.908C424.71 324.472 425.238 324.133 425.848 323.892C426.47 323.64 427.156 323.513 427.907 323.513H430.547C431.298 323.513 431.978 323.64 432.588 323.892C433.21 324.133 433.738 324.472 434.172 324.908C434.618 325.344 434.958 325.872 435.192 326.492C435.439 327.1 435.562 327.772 435.562 328.507C435.562 329.241 435.439 329.919 435.192 330.538C434.958 331.147 434.618 331.669 434.172 332.105C433.738 332.542 433.21 332.886 432.588 333.138C431.978 333.379 431.298 333.5 430.547 333.5H427.907ZM427.907 326.096C427.191 326.096 426.617 326.326 426.182 326.785C425.748 327.232 425.531 327.806 425.531 328.507C425.531 329.207 425.748 329.787 426.182 330.246C426.617 330.693 427.191 330.917 427.907 330.917H430.547C431.262 330.917 431.837 330.693 432.271 330.246C432.705 329.787 432.922 329.207 432.922 328.507C432.922 327.806 432.705 327.232 432.271 326.785C431.837 326.326 431.262 326.096 430.547 326.096H427.907Z" fill="#0A192F"/>
<path d="M439.078 323.599L439.465 324.874C439.7 324.472 440.023 324.162 440.433 323.944C440.856 323.714 441.43 323.599 442.158 323.599H446.029V326.182H442.158C441.771 326.182 441.43 326.251 441.137 326.389C440.844 326.526 440.592 326.716 440.38 326.957C440.181 327.198 440.028 327.485 439.923 327.818C439.829 328.139 439.782 328.495 439.782 328.885V333.414H437.142V323.599H439.078Z" fill="#0A192F"/>
<path d="M449.458 323.599L449.898 325.046C450.238 324.564 450.661 324.191 451.165 323.926C451.681 323.651 452.256 323.513 452.89 323.513H453.066C453.84 323.513 454.538 323.64 455.16 323.892C455.782 324.145 456.315 324.5 456.761 324.96C457.207 324.5 457.741 324.145 458.363 323.892C458.984 323.64 459.682 323.513 460.457 323.513H460.985C461.735 323.513 462.416 323.64 463.026 323.892C463.648 324.133 464.176 324.472 464.61 324.908C465.056 325.344 465.396 325.872 465.63 326.492C465.877 327.1 466 327.772 466 328.507V333.414H463.36V328.507C463.36 327.806 463.143 327.232 462.709 326.785C462.275 326.326 461.7 326.096 460.985 326.096H460.457C460.07 326.096 459.729 326.165 459.436 326.303C459.143 326.44 458.891 326.63 458.679 326.871C458.48 327.112 458.327 327.399 458.222 327.732C458.128 328.053 458.081 328.409 458.081 328.799V333.414H455.441V328.507C455.441 327.806 455.224 327.232 454.79 326.785C454.356 326.326 453.781 326.096 453.066 326.096H452.538C452.151 326.096 451.81 326.165 451.517 326.303C451.224 326.44 450.972 326.63 450.76 326.871C450.561 327.112 450.408 327.399 450.303 327.732C450.209 328.053 450.162 328.409 450.162 328.799V333.414H447.522V323.599H449.458Z" fill="#0A192F"/>
<path d="M455.6 295.791V277.929H453.492V257.736C453.492 254.038 452.53 251.228 450.607 249.305C448.684 247.381 445.837 246.42 442.065 246.42C439.994 246.42 437.701 246.457 435.186 246.531C432.671 246.605 430.194 246.716 427.753 246.864C425.386 246.938 423.278 247.049 421.429 247.197V235.991C423.056 235.843 424.831 235.732 426.754 235.658C428.751 235.51 430.785 235.399 432.856 235.325C435.001 235.251 437.035 235.214 438.958 235.214C445.023 235.214 450.053 235.991 454.047 237.544C458.041 239.097 460.999 241.575 462.922 244.978C464.919 248.306 465.918 252.781 465.918 258.402V295.791H455.6ZM436.185 297.344C431.821 297.344 428.012 296.605 424.757 295.125C421.503 293.572 418.988 291.353 417.213 288.469C415.438 285.51 414.55 281.997 414.55 277.929C414.55 273.639 415.549 270.088 417.546 267.278C419.617 264.467 422.538 262.359 426.31 260.954C430.083 259.549 434.594 258.846 439.846 258.846H454.823V267.389H439.513C435.593 267.389 432.597 268.35 430.526 270.273C428.455 272.123 427.42 274.563 427.42 277.596C427.42 280.628 428.455 283.069 430.526 284.918C432.597 286.693 435.593 287.581 439.513 287.581C441.806 287.581 443.988 287.174 446.059 286.361C448.13 285.473 449.831 284.031 451.162 282.034C452.567 280.037 453.344 277.226 453.492 273.602L456.82 277.929C456.451 282.145 455.415 285.695 453.714 288.58C452.087 291.39 449.794 293.572 446.835 295.125C443.951 296.605 440.4 297.344 436.185 297.344Z" fill="#004AAD"/>
<path d="M388.343 297.789C383.166 297.789 378.654 296.901 374.808 295.126C370.962 293.351 367.818 291.021 365.378 288.136C362.937 285.178 361.088 281.886 359.83 278.262C358.647 274.564 358.055 270.792 358.055 266.945V264.837C358.055 260.917 358.647 257.145 359.83 253.521C361.088 249.823 362.937 246.531 365.378 243.647C367.818 240.688 370.888 238.358 374.586 236.657C378.358 234.882 382.722 233.994 387.678 233.994C394.112 233.994 399.475 235.4 403.765 238.21C408.054 241.021 411.272 244.682 413.417 249.194C415.562 253.632 416.634 258.44 416.634 263.617V268.832H363.602V260.067H407.87L404.319 264.505C404.319 260.511 403.691 257.071 402.433 254.187C401.176 251.228 399.327 248.972 396.886 247.419C394.445 245.792 391.376 244.978 387.678 244.978C383.831 244.978 380.614 245.866 378.025 247.641C375.437 249.416 373.514 251.857 372.256 254.963C370.999 258.07 370.37 261.731 370.37 265.947C370.37 269.941 370.999 273.528 372.256 276.709C373.514 279.815 375.474 282.293 378.136 284.142C380.799 285.917 384.201 286.805 388.343 286.805C392.485 286.805 395.887 285.917 398.55 284.142C401.213 282.293 402.84 280.148 403.432 277.707H415.525C414.711 281.775 413.047 285.326 410.532 288.358C408.091 291.391 404.985 293.721 401.213 295.348C397.441 296.975 393.151 297.789 388.343 297.789Z" fill="#004AAD"/>
<path d="M341.202 295.796V214.805H354.293V295.796H341.202ZM333.325 224.79V214.805H354.293V224.79H333.325Z" fill="#004AAD"/>
<path d="M301.842 297.569C294.815 297.569 289.416 295.313 285.644 290.802C281.871 286.216 279.985 279.485 279.985 270.609V235.994H292.966V272.385C292.966 276.527 294.112 279.818 296.405 282.259C298.698 284.626 301.805 285.809 305.725 285.809C309.719 285.809 312.973 284.552 315.488 282.037C318.076 279.448 319.371 275.935 319.371 271.497V235.994H332.351V295.794H322.034V270.277H323.365C323.365 276.268 322.551 281.297 320.924 285.365C319.371 289.359 317.041 292.392 313.935 294.463C310.902 296.534 307.056 297.569 302.396 297.569H301.842Z" fill="#004AAD"/>
<path d="M246.474 295.794V235.994H256.792V260.957H256.348C256.348 252.377 258.234 245.979 262.006 241.763C265.778 237.473 271.362 235.993 278.759 235.993H280.867V246.755H276.873C271.251 246.755 266.925 248.272 263.892 251.304C260.933 254.263 259.454 258.516 259.454 264.063V295.794H246.474Z" fill="#004AAD"/>
<path d="M215.274 297.789C210.096 297.789 205.585 296.901 201.739 295.126C197.892 293.351 194.749 291.021 192.308 288.136C189.867 285.178 188.018 281.886 186.761 278.262C185.578 274.564 184.986 270.792 184.986 266.945V264.837C184.986 260.917 185.578 257.145 186.761 253.521C188.018 249.823 189.867 246.531 192.308 243.647C194.749 240.688 197.818 238.358 201.517 236.657C205.289 234.882 209.653 233.994 214.608 233.994C221.043 233.994 226.405 235.4 230.695 238.21C234.985 241.021 238.202 244.682 240.347 249.194C242.492 253.632 243.565 258.44 243.565 263.617V268.832H190.533V260.067H234.8L231.25 264.505C231.25 260.511 230.621 257.071 229.364 254.187C228.106 251.228 226.257 248.972 223.817 247.419C221.376 245.792 218.306 244.978 214.608 244.978C210.762 244.978 207.545 245.866 204.956 247.641C202.367 249.416 200.444 251.857 199.187 254.963C197.929 258.07 197.301 261.731 197.301 265.947C197.301 269.941 197.929 273.528 199.187 276.709C200.444 279.815 202.404 282.293 205.067 284.142C207.73 285.917 211.132 286.805 215.274 286.805C219.416 286.805 222.818 285.917 225.481 284.142C228.143 282.293 229.771 280.148 230.362 277.707H242.455C241.642 281.775 239.978 285.326 237.463 288.358C235.022 291.391 231.916 293.721 228.143 295.348C224.371 296.975 220.081 297.789 215.274 297.789Z" fill="#004AAD"/>
<path d="M149.053 297.788C141.657 297.788 135.333 296.531 130.082 294.016C124.904 291.427 120.689 288.062 117.434 283.92C114.254 279.704 111.887 275.192 110.334 270.384C108.854 265.503 108.115 260.806 108.115 256.294V253.853C108.115 248.898 108.891 243.979 110.445 239.098C111.998 234.216 114.365 229.778 117.545 225.784C120.799 221.79 124.978 218.573 130.082 216.132C135.259 213.691 141.361 212.47 148.388 212.47C155.71 212.47 162.034 213.765 167.359 216.354C172.685 218.942 176.901 222.567 180.007 227.226C183.188 231.812 185.074 237.248 185.665 243.535H172.241C171.649 239.393 170.244 235.954 168.025 233.217C165.88 230.407 163.107 228.299 159.704 226.893C156.376 225.488 152.604 224.786 148.388 224.786C144.024 224.786 140.141 225.562 136.739 227.115C133.41 228.669 130.637 230.814 128.418 233.55C126.199 236.287 124.498 239.504 123.314 243.203C122.205 246.827 121.65 250.821 121.65 255.185C121.65 259.327 122.205 263.247 123.314 266.945C124.498 270.569 126.236 273.787 128.529 276.597C130.822 279.408 133.669 281.59 137.071 283.143C140.548 284.697 144.542 285.473 149.053 285.473C155.562 285.473 161.036 283.883 165.473 280.702C169.911 277.448 172.611 272.825 173.572 266.834H187.108C186.368 272.529 184.445 277.744 181.338 282.478C178.232 287.137 173.979 290.873 168.58 293.683C163.18 296.42 156.672 297.788 149.053 297.788Z" fill="#004AAD"/>
<path fill-rule="evenodd" clip-rule="evenodd" d="M81.7626 179.901C78.9638 181.071 76.4437 182.747 74.2975 184.821C71.9005 187.138 69.9787 189.95 68.6839 193.105L46.8405 246.32C45.6182 249.298 45.0047 252.459 45 255.622C44.9954 258.808 45.6006 261.99 46.8323 264.991L68.6756 318.206C69.9433 321.294 71.8168 324.051 74.1438 326.339C76.3219 328.482 78.9017 330.21 81.7662 331.408L134.498 353.451C137.461 354.689 140.606 355.308 143.751 355.309C146.897 355.309 150.046 354.694 153.009 353.456L194.123 336.269C199.677 333.948 201.115 326.744 196.878 322.468L184.623 310.101C181.656 307.107 176.969 306.806 173.3 308.884C164.564 313.833 154.482 316.65 143.751 316.65C127.234 316.65 112.264 309.965 101.354 299.129C90.2116 288.064 83.3059 272.643 83.3059 255.622C83.3156 238.539 90.2843 223.097 101.506 212.029C112.403 201.281 127.311 194.657 143.752 194.657C154.484 194.657 164.562 197.479 173.299 202.428C176.967 204.506 181.655 204.205 184.622 201.211L196.876 188.845C201.112 184.57 199.675 177.366 194.121 175.044L153.006 157.857C150.044 156.619 146.898 156 143.752 156C140.608 156 137.457 156.619 134.495 157.857L81.7626 179.901Z" fill="url(#pattern0_363_2)" fill-opacity="0.2"/>
<defs>
<pattern id="pattern0_363_2" patternUnits="userSpaceOnUse" patternTransform="matrix(54.8391 0 0 57.4999 95.6354 242.586)" preserveAspectRatio="none" viewBox="0 0 210.919 221.154" width="1" height="1">
<use xlink:href="#pattern0_363_2_inner" transform="translate(-210.919 0)"/>
<g id="pattern0_363_2_inner">
<path d="M63.0986 0.215478C63.9725 0.169748 65.957 2.61085 66.6146 3.29799C68.5537 5.3246 70.4252 7.42669 72.364 9.45517L90.7399 28.64C92.0159 29.9924 93.3571 31.3008 94.6271 32.6356C95.1066 33.2539 96.1756 34.1602 95.7299 35.0086C95.2517 35.9191 94.3788 36.3764 93.4891 36.7425C91.4855 35.1225 88.0695 31.1087 86.023 29.0226C80.0528 22.9183 74.1549 16.7438 68.3305 10.5003C66.8715 8.93001 65.448 7.49963 63.9909 5.88519C63.553 7.53174 62.9733 9.16583 62.5114 10.8039L55.9424 33.3294L52.9014 43.9424C52.4563 45.5274 52.1049 47.1734 51.5882 48.727C55.051 52.1613 58.3838 55.7872 61.7876 59.2806C63.114 60.642 60.445 63.1754 59.1567 61.8851C55.6994 58.4225 52.3293 54.6844 48.8347 51.2658C45.9868 52.0315 42.9879 52.6285 40.1106 53.306L24.9476 57.0112L13.6796 59.7918C11.5738 60.328 7.88419 61.4306 5.81904 61.5843C7.32868 62.8983 10.2103 66.2149 11.7752 67.8274L28.4129 85.2456C30.3632 87.2824 34.7672 92.1934 36.7554 93.5178C41.4073 92.6815 45.9092 91.0092 50.5458 90.0921C51.8668 89.8308 55.2279 88.807 56.2944 89.708C57.668 90.8685 56.5565 92.4735 55.0875 92.9274C53.169 93.5202 51.1492 93.8853 49.2081 94.4227C46.4089 95.1986 43.5656 95.8409 40.7372 96.5062C39.199 96.8627 36.7901 97.5576 35.3063 97.6499C34.5348 97.0151 33.2934 95.6395 32.6077 94.9024L28.7066 90.7266L16.8936 78.4476C13.2318 74.64 9.54906 70.8526 5.84534 67.0856C4.27688 65.4903 1.35583 62.6947 0 61.0664C0.080667 60.7362 0.213276 60.3279 0.335844 60.009C1.31738 57.4545 1.83707 54.8121 2.59064 52.1968L7.73212 34.9835C8.78024 31.3928 9.79272 27.7077 10.8443 24.115C11.7476 21.0292 13.1379 15.2714 14.6225 12.5348C15.6101 11.9233 17.6965 11.5994 18.8571 11.2649C22.5735 10.194 26.2962 9.34471 30.0791 8.55106C32.713 7.99842 35.4476 6.94644 38.0812 6.4055C42.2457 5.72187 46.2802 4.28928 50.3598 3.37754C54.6816 2.41158 58.8227 1.37978 63.0986 0.215478Z" fill="#004AAD"/>
<path d="M175.671 0C176.052 0.105176 176.437 0.394088 176.703 0.677217C179.361 3.50714 182.015 6.38323 184.684 9.20018L201.055 26.3977C202.902 28.3317 204.771 30.2447 206.662 32.1365C208.088 33.5772 209.861 35.1956 210.919 36.8758C210.159 40.7725 208.684 44.8859 207.581 48.7154C206.334 53.1707 205.038 57.5605 203.695 61.9911C202.568 65.7089 201.63 69.7305 200.374 73.4058C199.307 76.5276 198.216 82.628 196.659 85.2974C194.915 86.3286 190.054 87.0854 187.844 87.649L163.836 93.574C159.938 94.5079 156.087 95.6733 152.144 96.4712C150.598 96.7839 149.009 97.2541 147.443 97.4146C146.483 96.6061 145.09 95.0389 144.184 94.0721C142.402 92.151 140.599 90.2491 138.776 88.3666C134.936 84.4471 131.129 80.4961 127.354 76.5139C125.773 74.8703 124.126 73.2383 122.54 71.5996C120.362 69.3463 123.454 67.1738 125.29 68.8344C126.879 70.2717 128.268 72.0262 129.768 73.5868C133.495 77.4303 137.194 81.3006 140.865 85.1972C142.959 87.4344 146.576 91.533 148.849 93.3725C149.939 93.259 151.643 92.7554 152.713 92.4773C154.93 91.9017 157.154 91.2369 159.379 90.7005L180.265 85.7219C184.675 84.6483 189.18 83.3714 193.636 82.5128C195.306 78.3105 196.337 73.5983 197.646 69.2696C198.848 65.2962 199.984 61.3724 201.108 57.3782C202.15 54.1096 202.908 50.9596 203.874 47.7614C204.999 44.0297 205.921 41.6657 206.655 37.7652L206.615 37.6975C206.271 37.1412 205.346 36.1287 204.861 35.6208C198.102 28.5244 191.255 21.4937 184.505 14.3902L178.643 8.27378C178.158 7.76086 176.805 6.09378 176.297 5.96941C175.722 6.6451 165.042 44.6701 163.926 48.4921C166.326 50.6081 169.826 54.5813 172.218 57.0631C174.906 59.8206 177.573 62.599 180.22 65.3977C182.008 67.2643 183.851 69.0513 185.485 71.0633C186.32 72.0905 186.152 72.6194 185.307 73.6122C184.35 74.7348 183.504 74.2075 182.624 73.3428C181.645 72.3801 180.734 71.316 179.794 70.3049C178.187 68.6076 176.57 66.9185 174.946 65.2376L165.576 55.4641C164.149 53.9669 162.553 52.4535 161.213 50.9108C157.045 51.8724 152.816 53.0788 148.634 54.0256C146.706 54.4622 146.063 55.0516 144.709 53.4355C144.535 52.329 144.627 51.218 145.82 50.7488C147.738 49.9745 149.871 49.8321 151.854 49.3169C154.639 48.5933 157.525 47.882 160.258 46.9933C161.269 45.0558 162.172 40.2665 162.882 37.8851C166.258 26.9365 169.426 15.9251 172.385 4.85663L172.326 4.87837C171.362 5.22399 167.775 6.03077 166.73 6.19663C164.255 6.58948 155.026 9.6876 153.382 8.90543C153.207 8.70779 153.126 8.50529 153.062 8.25215C152.919 7.67766 152.728 6.47085 153.077 5.9639C153.711 5.04423 165.689 2.51992 167.609 2.04C170.262 1.37676 172.974 0.39092 175.671 0Z" fill="#004AAD"/>
<path d="M96.6175 40.0701C101.885 39.1688 109.135 42.2106 112.82 45.8373C113.77 46.7724 114.648 48.0047 113.505 49.1596C111.823 50.8602 109.847 48.1697 108.536 47.2539C100.632 41.8496 92.1538 42.9121 85.2934 49.3263C81.3209 53.0659 77.3854 56.8446 73.4874 60.6618C67.7125 66.2147 61.8039 70.2686 61.9599 79.2935C62.1303 89.1505 68.9037 96.3693 78.9736 96.567C87.0333 96.7253 90.3176 92.8859 95.8033 87.6423L104.133 79.7184C105.189 78.7418 106.221 77.74 107.229 76.7138C108.264 75.6482 110.881 72.3218 112.709 73.6799C113.546 74.3942 113.916 75.5858 113.069 76.4255C109.231 80.2339 105.232 83.9026 101.321 87.6431C97.6598 91.1438 93.9874 95.2057 89.6925 97.8944C87.6 99.2044 83.5996 100.182 81.1934 100.423C75.7241 100.964 70.2619 99.3266 65.9925 95.8655C61.5075 92.1678 58.8143 87.254 58.1443 81.472C56.8023 69.8892 63.9783 64.3918 71.3901 57.2339C73.8696 54.8122 76.3756 52.4179 78.908 50.0514C84.8143 44.4206 87.9355 40.8705 96.6175 40.0701Z" fill="#004AAD"/>
<path d="M133.925 4.76042C139.501 4.42506 144.981 6.33414 149.141 10.0623C153.307 13.7771 155.822 18.9972 156.132 24.5697C156.441 31.1107 154.52 36.3987 149.915 41.0522C146.694 44.3064 143.319 47.4589 140.027 50.6384C137.944 52.6655 135.85 54.682 133.747 56.6881C128.927 61.27 124.464 64.9171 117.426 65.2723C111.482 65.6036 106.008 63.6191 101.588 59.6306C99.6226 57.8575 99.82 55.0499 102.897 55.8516C103.645 56.0466 105.098 57.5675 105.811 58.1302C108.604 60.336 112.416 61.453 115.954 61.4592C123.765 61.6677 128.343 56.6169 133.522 51.5727C136.325 49.0913 138.934 46.3131 141.654 43.7533C147.829 37.9425 153.586 33.0314 152.308 23.5536C151.738 19.0349 149.355 14.9424 145.707 12.2151C142.541 9.8026 140.16 8.91615 136.233 8.58929C127.355 7.85015 123.041 13.1365 117.161 18.788L107.152 28.4795C106.341 29.2784 103.862 31.9144 102.955 31.9083C100.618 31.8926 100.128 29.8881 101.728 28.3036C104.085 25.9692 106.328 23.6845 108.722 21.503C114.149 16.5583 119.032 10.621 125.415 6.91481C127.68 5.62149 131.401 4.92451 133.925 4.76042Z" fill="#004AAD"/>
<path d="M133.531 17.2068C136.301 16.9529 138.893 17.6218 140.936 19.5705C142.842 21.3889 143.536 23.2009 143.598 25.8104C143.81 28.4861 142.488 32.4221 139.431 32.7552C138.067 32.904 137.07 30.7311 138.365 29.5547C139.129 28.8614 139.928 27.1392 139.959 26.1632C139.993 24.8196 139.489 23.5181 138.557 22.5487C137.54 21.4789 136.371 21.1047 134.927 21.062C132.488 20.9901 130.977 22.8454 129.347 24.4355C125.913 27.4536 122.675 31.0781 119.27 34.1595C116.613 36.5641 114.942 33.223 115.88 32.1167C117.125 30.6485 119.716 28.3449 121.198 26.9114C122.796 25.3709 124.384 23.8208 125.963 22.2613C128.432 19.8263 129.993 17.9403 133.531 17.2068Z" fill="#004AAD"/>
<path d="M94.9139 71.3713C96.2805 71.3013 97.8141 71.9462 97.5363 73.6023C97.478 73.95 96.6603 74.8555 96.3822 75.1295C94.8934 76.5961 93.3266 77.963 91.8296 79.4266C90.2068 81.022 88.5694 82.6024 86.9178 84.168C85.8469 85.1921 84.8773 86.1539 83.7123 87.0764C78.859 90.9196 72.1679 88.9173 70.0585 83.1494C69.3893 81.3195 69.4693 79.9138 69.7852 78.0209C70.6022 75.3212 73.1003 70.7774 75.6047 75.0606C75.1343 76.2838 74.3067 77.3142 73.7754 78.5055C73.2566 79.6686 73.2428 80.871 73.7129 82.0548C74.2058 83.2958 75.1705 84.4111 76.4114 84.938C77.5786 85.4335 78.8377 85.3712 79.984 84.8521C82.2086 83.8445 89.5787 76.3244 91.8139 74.0982C92.741 73.1748 93.6889 71.873 94.9139 71.3713Z" fill="#004AAD"/>
</g>
<use xlink:href="#pattern0_363_2_inner" transform="translate(-105.46 110.577)"/>
<use xlink:href="#pattern0_363_2_inner" transform="translate(105.46 110.577)"/>
</pattern></defs>
</svg>
