<svg viewBox="40 150 430 210" fill="none" xmlns="http://www.w3.org/2000/svg" xmlns:xlink="http://www.w3.org/1999/xlink">
<path fill-rule="evenodd" clip-rule="evenodd" d="M153.006 157.857C150.044 156.618 146.898 155.999 143.752 155.999C140.607 155.999 137.457 156.619 134.495 157.857L81.7623 179.9C78.9636 181.07 76.4368 182.747 74.2905 184.821L101.499 212.03C112.397 201.281 127.311 194.656 143.752 194.656C154.484 194.656 164.562 197.478 173.299 202.428C176.967 204.506 181.655 204.205 184.622 201.21L196.876 188.845C201.112 184.569 199.674 177.365 194.121 175.043L153.006 157.857Z" fill="#EEC000"/>
<path fill-rule="evenodd" clip-rule="evenodd" d="M83.3059 255.621C83.3156 238.538 90.2843 223.097 101.506 212.029L74.2975 184.82C71.9005 187.138 69.9787 189.949 68.6839 193.104L46.8405 246.319C45.6182 249.297 45.0047 252.459 45 255.621C44.9954 258.807 45.6006 261.989 46.8323 264.99L68.6756 318.205C69.9433 321.293 71.8116 324.053 74.1386 326.342L101.348 299.132C90.2064 288.066 83.3059 272.643 83.3059 255.621Z" fill="#004AAD"/>
<path fill-rule="evenodd" clip-rule="evenodd" d="M143.751 316.649C127.234 316.649 112.264 309.964 101.354 299.128L74.144 326.339C76.3221 328.481 78.9019 330.21 81.7664 331.407L134.499 353.451C137.461 354.689 140.606 355.308 143.751 355.308C146.897 355.308 150.046 354.694 153.009 353.456L194.124 336.269C199.677 333.947 201.115 326.743 196.878 322.468L184.624 310.101C181.656 307.106 176.969 306.805 173.3 308.883C164.564 313.832 154.482 316.649 143.751 316.649Z" fill="#30B700"/>
<path d="M455.6 295.791V277.929H453.492V257.736C453.492 254.038 452.53 251.228 450.607 249.305C448.684 247.381 445.837 246.42 442.065 246.42C439.994 246.42 437.701 246.457 435.186 246.531C432.671 246.605 430.194 246.716 427.753 246.864C425.386 246.938 423.278 247.049 421.429 247.197V235.991C423.056 235.843 424.831 235.732 426.754 235.658C428.751 235.51 430.785 235.399 432.856 235.325C435.001 235.251 437.035 235.214 438.958 235.214C445.023 235.214 450.053 235.991 454.047 237.544C458.041 239.097 460.999 241.575 462.922 244.978C464.919 248.306 465.918 252.781 465.918 258.402V295.791H455.6ZM436.185 297.344C431.821 297.344 428.012 296.605 424.757 295.125C421.503 293.572 418.988 291.353 417.213 288.469C415.438 285.51 414.55 281.997 414.55 277.929C414.55 273.639 415.549 270.088 417.546 267.278C419.617 264.467 422.538 262.359 426.31 260.954C430.083 259.549 434.594 258.846 439.846 258.846H454.823V267.389H439.513C435.593 267.389 432.597 268.35 430.526 270.273C428.455 272.123 427.42 274.563 427.42 277.596C427.42 280.628 428.455 283.069 430.526 284.918C432.597 286.693 435.593 287.581 439.513 287.581C441.806 287.581 443.988 287.174 446.059 286.361C448.13 285.473 449.831 284.031 451.162 282.034C452.567 280.037 453.344 277.226 453.492 273.602L456.82 277.929C456.451 282.145 455.415 285.695 453.714 288.58C452.087 291.39 449.794 293.572 446.835 295.125C443.951 296.605 440.4 297.344 436.185 297.344Z" fill="#004AAD"/>
<path d="M388.343 297.789C383.166 297.789 378.654 296.901 374.808 295.126C370.962 293.351 367.818 291.021 365.378 288.136C362.937 285.178 361.088 281.886 359.83 278.262C358.647 274.564 358.055 270.792 358.055 266.945V264.837C358.055 260.917 358.647 257.145 359.83 253.521C361.088 249.823 362.937 246.531 365.378 243.647C367.818 240.688 370.888 238.358 374.586 236.657C378.358 234.882 382.722 233.994 387.678 233.994C394.112 233.994 399.475 235.4 403.765 238.21C408.054 241.021 411.272 244.682 413.417 249.194C415.562 253.632 416.634 258.44 416.634 263.617V268.832H363.602V260.067H407.87L404.319 264.505C404.319 260.511 403.691 257.071 402.433 254.187C401.176 251.228 399.327 248.972 396.886 247.419C394.445 245.792 391.376 244.978 387.678 244.978C383.831 244.978 380.614 245.866 378.025 247.641C375.437 249.416 373.514 251.857 372.256 254.963C370.999 258.07 370.37 261.731 370.37 265.947C370.37 269.941 370.999 273.528 372.256 276.709C373.514 279.815 375.474 282.293 378.136 284.142C380.799 285.917 384.201 286.805 388.343 286.805C392.485 286.805 395.887 285.917 398.55 284.142C401.213 282.293 402.84 280.148 403.432 277.707H415.525C414.711 281.775 413.047 285.326 410.532 288.358C408.091 291.391 404.985 293.721 401.213 295.348C397.441 296.975 393.151 297.789 388.343 297.789Z" fill="#004AAD"/>
<path d="M341.202 295.796V214.805H354.293V295.796H341.202ZM333.325 224.79V214.805H354.293V224.79H333.325Z" fill="#004AAD"/>
<path d="M301.842 297.569C294.815 297.569 289.416 295.313 285.644 290.802C281.871 286.216 279.985 279.485 279.985 270.609V235.994H292.966V272.385C292.966 276.527 294.112 279.818 296.405 282.259C298.698 284.626 301.805 285.809 305.725 285.809C309.719 285.809 312.973 284.552 315.488 282.037C318.076 279.448 319.371 275.935 319.371 271.497V235.994H332.351V295.794H322.034V270.277H323.365C323.365 276.268 322.551 281.297 320.924 285.365C319.371 289.359 317.041 292.392 313.935 294.463C310.902 296.534 307.056 297.569 302.396 297.569H301.842Z" fill="#004AAD"/>
<path d="M246.474 295.794V235.994H256.792V260.957H256.348C256.348 252.377 258.234 245.979 262.006 241.763C265.778 237.473 271.362 235.993 278.759 235.993H280.867V246.755H276.873C271.251 246.755 266.925 248.272 263.892 251.304C260.933 254.263 259.454 258.516 259.454 264.063V295.794H246.474Z" fill="#004AAD"/>
<path d="M215.274 297.789C210.096 297.789 205.585 296.901 201.739 295.126C197.892 293.351 194.749 291.021 192.308 288.136C189.867 285.178 188.018 281.886 186.761 278.262C185.578 274.564 184.986 270.792 184.986 266.945V264.837C184.986 260.917 185.578 257.145 186.761 253.521C188.018 249.823 189.867 246.531 192.308 243.647C194.749 240.688 197.818 238.358 201.517 236.657C205.289 234.882 209.653 233.994 214.608 233.994C221.043 233.994 226.405 235.4 230.695 238.21C234.985 241.021 238.202 244.682 240.347 249.194C242.492 253.632 243.565 258.44 243.565 263.617V268.832H190.533V260.067H234.8L231.25 264.505C231.25 260.511 230.621 257.071 229.364 254.187C228.106 251.228 226.257 248.972 223.817 247.419C221.376 245.792 218.306 244.978 214.608 244.978C210.762 244.978 207.545 245.866 204.956 247.641C202.367 249.416 200.444 251.857 199.187 254.963C197.929 258.07 197.301 261.731 197.301 265.947C197.301 269.941 197.929 273.528 199.187 276.709C200.444 279.815 202.404 282.293 205.067 284.142C207.73 285.917 211.132 286.805 215.274 286.805C219.416 286.805 222.818 285.917 225.481 284.142C228.143 282.293 229.771 280.148 230.362 277.707H242.455C241.642 281.775 239.978 285.326 237.463 288.358C235.022 291.391 231.916 293.721 228.143 295.348C224.371 296.975 220.081 297.789 215.274 297.789Z" fill="#004AAD"/>
<path d="M149.053 297.788C141.657 297.788 135.333 296.531 130.082 294.016C124.904 291.427 120.689 288.062 117.434 283.92C114.254 279.704 111.887 275.192 110.334 270.384C108.854 265.503 108.115 260.806 108.115 256.294V253.853C108.115 248.898 108.891 243.979 110.445 239.098C111.998 234.216 114.365 229.778 117.545 225.784C120.799 221.79 124.978 218.573 130.082 216.132C135.259 213.691 141.361 212.47 148.388 212.47C155.71 212.47 162.034 213.765 167.359 216.354C172.685 218.942 176.901 222.567 180.007 227.226C183.188 231.812 185.074 237.248 185.665 243.535H172.241C171.649 239.393 170.244 235.954 168.025 233.217C165.88 230.407 163.107 228.299 159.704 226.893C156.376 225.488 152.604 224.786 148.388 224.786C144.024 224.786 140.141 225.562 136.739 227.115C133.41 228.669 130.637 230.814 128.418 233.55C126.199 236.287 124.498 239.504 123.314 243.203C122.205 246.827 121.65 250.821 121.65 255.185C121.65 259.327 122.205 263.247 123.314 266.945C124.498 270.569 126.236 273.787 128.529 276.597C130.822 279.408 133.669 281.59 137.071 283.143C140.548 284.697 144.542 285.473 149.053 285.473C155.562 285.473 161.036 283.883 165.473 280.702C169.911 277.448 172.611 272.825 173.572 266.834H187.108C186.368 272.529 184.445 277.744 181.338 282.478C178.232 287.137 173.979 290.873 168.58 293.683C163.18 296.42 156.672 297.788 149.053 297.788Z" fill="#004AAD"/>
<path fill-rule="evenodd" clip-rule="evenodd" d="M81.7626 179.901C78.9638 181.071 76.4437 182.747 74.2975 184.821C71.9005 187.138 69.9787 189.95 68.6839 193.105L46.8405 246.32C45.6182 249.298 45.0047 252.459 45 255.622C44.9954 258.808 45.6006 261.99 46.8323 264.991L68.6756 318.206C69.9433 321.294 71.8168 324.051 74.1438 326.339C76.3219 328.482 78.9017 330.21 81.7662 331.408L134.498 353.451C137.461 354.689 140.606 355.308 143.751 355.309C146.897 355.309 150.046 354.694 153.009 353.456L194.123 336.269C199.677 333.948 201.115 326.744 196.878 322.468L184.623 310.101C181.656 307.107 176.969 306.806 173.3 308.884C164.564 313.833 154.482 316.65 143.751 316.65C127.234 316.65 112.264 309.965 101.354 299.129C90.2116 288.064 83.3059 272.643 83.3059 255.622C83.3156 238.539 90.2843 223.097 101.506 212.029C112.403 201.281 127.311 194.657 143.752 194.657C154.484 194.657 164.562 197.479 173.299 202.428C176.967 204.506 181.655 204.205 184.622 201.211L196.876 188.845C201.112 184.57 199.675 177.366 194.121 175.044L153.006 157.857C150.044 156.619 146.898 156 143.752 156C140.608 156 137.457 156.619 134.495 157.857L81.7626 179.901Z" fill="url(#pattern0_363_2)" fill-opacity="0.2"/>
<defs>
<pattern id="pattern0_363_2" patternUnits="userSpaceOnUse" patternTransform="matrix(54.8391 0 0 57.4999 95.6354 242.586)" preserveAspectRatio="none" viewBox="0 0 210.919 221.154" width="1" height="1">
<use xlink:href="#pattern0_363_2_inner" transform="translate(-210.919 0)"/>
<g id="pattern0_363_2_inner">
<path d="M63.0986 0.215478C63.9725 0.169748 65.957 2.61085 66.6146 3.29799C68.5537 5.3246 70.4252 7.42669 72.364 9.45517L90.7399 28.64C92.0159 29.9924 93.3571 31.3008 94.6271 32.6356C95.1066 33.2539 96.1756 34.1602 95.7299 35.0086C95.2517 35.9191 94.3788 36.3764 93.4891 36.7425C91.4855 35.1225 88.0695 31.1087 86.023 29.0226C80.0528 22.9183 74.1549 16.7438 68.3305 10.5003C66.8715 8.93001 65.448 7.49963 63.9909 5.88519C63.553 7.53174 62.9733 9.16583 62.5114 10.8039L55.9424 33.3294L52.9014 43.9424C52.4563 45.5274 52.1049 47.1734 51.5882 48.727C55.051 52.1613 58.3838 55.7872 61.7876 59.2806C63.114 60.642 60.445 63.1754 59.1567 61.8851C55.6994 58.4225 52.3293 54.6844 48.8347 51.2658C45.9868 52.0315 42.9879 52.6285 40.1106 53.306L24.9476 57.0112L13.6796 59.7918C11.5738 60.328 7.88419 61.4306 5.81904 61.5843C7.32868 62.8983 10.2103 66.2149 11.7752 67.8274L28.4129 85.2456C30.3632 87.2824 34.7672 92.1934 36.7554 93.5178C41.4073 92.6815 45.9092 91.0092 50.5458 90.0921C51.8668 89.8308 55.2279 88.807 56.2944 89.708C57.668 90.8685 56.5565 92.4735 55.0875 92.9274C53.169 93.5202 51.1492 93.8853 49.2081 94.4227C46.4089 95.1986 43.5656 95.8409 40.7372 96.5062C39.199 96.8627 36.7901 97.5576 35.3063 97.6499C34.5348 97.0151 33.2934 95.6395 32.6077 94.9024L28.7066 90.7266L16.8936 78.4476C13.2318 74.64 9.54906 70.8526 5.84534 67.0856C4.27688 65.4903 1.35583 62.6947 0 61.0664C0.080667 60.7362 0.213276 60.3279 0.335844 60.009C1.31738 57.4545 1.83707 54.8121 2.59064 52.1968L7.73212 34.9835C8.78024 31.3928 9.79272 27.7077 10.8443 24.115C11.7476 21.0292 13.1379 15.2714 14.6225 12.5348C15.6101 11.9233 17.6965 11.5994 18.8571 11.2649C22.5735 10.194 26.2962 9.34471 30.0791 8.55106C32.713 7.99842 35.4476 6.94644 38.0812 6.4055C42.2457 5.72187 46.2802 4.28928 50.3598 3.37754C54.6816 2.41158 58.8227 1.37978 63.0986 0.215478Z" fill="#004AAD"/>
<path d="M175.671 0C176.052 0.105176 176.437 0.394088 176.703 0.677217C179.361 3.50714 182.015 6.38323 184.684 9.20018L201.055 26.3977C202.902 28.3317 204.771 30.2447 206.662 32.1365C208.088 33.5772 209.861 35.1956 210.919 36.8758C210.159 40.7725 208.684 44.8859 207.581 48.7154C206.334 53.1707 205.038 57.5605 203.695 61.9911C202.568 65.7089 201.63 69.7305 200.374 73.4058C199.307 76.5276 198.216 82.628 196.659 85.2974C194.915 86.3286 190.054 87.0854 187.844 87.649L163.836 93.574C159.938 94.5079 156.087 95.6733 152.144 96.4712C150.598 96.7839 149.009 97.2541 147.443 97.4146C146.483 96.6061 145.09 95.0389 144.184 94.0721C142.402 92.151 140.599 90.2491 138.776 88.3666C134.936 84.4471 131.129 80.4961 127.354 76.5139C125.773 74.8703 124.126 73.2383 122.54 71.5996C120.362 69.3463 123.454 67.1738 125.29 68.8344C126.879 70.2717 128.268 72.0262 129.768 73.5868C133.495 77.4303 137.194 81.3006 140.865 85.1972C142.959 87.4344 146.576 91.533 148.849 93.3725C149.939 93.259 151.643 92.7554 152.713 92.4773C154.93 91.9017 157.154 91.2369 159.379 90.7005L180.265 85.7219C184.675 84.6483 189.18 83.3714 193.636 82.5128C195.306 78.3105 196.337 73.5983 197.646 69.2696C198.848 65.2962 199.984 61.3724 201.108 57.3782C202.15 54.1096 202.908 50.9596 203.874 47.7614C204.999 44.0297 205.921 41.6657 206.655 37.7652L206.615 37.6975C206.271 37.1412 205.346 36.1287 204.861 35.6208C198.102 28.5244 191.255 21.4937 184.505 14.3902L178.643 8.27378C178.158 7.76086 176.805 6.09378 176.297 5.96941C175.722 6.6451 165.042 44.6701 163.926 48.4921C166.326 50.6081 169.826 54.5813 172.218 57.0631C174.906 59.8206 177.573 62.599 180.22 65.3977C182.008 67.2643 183.851 69.0513 185.485 71.0633C186.32 72.0905 186.152 72.6194 185.307 73.6122C184.35 74.7348 183.504 74.2075 182.624 73.3428C181.645 72.3801 180.734 71.316 179.794 70.3049C178.187 68.6076 176.57 66.9185 174.946 65.2376L165.576 55.4641C164.149 53.9669 162.553 52.4535 161.213 50.9108C157.045 51.8724 152.816 53.0788 148.634 54.0256C146.706 54.4622 146.063 55.0516 144.709 53.4355C144.535 52.329 144.627 51.218 145.82 50.7488C147.738 49.9745 149.871 49.8321 151.854 49.3169C154.639 48.5933 157.525 47.882 160.258 46.9933C161.269 45.0558 162.172 40.2665 162.882 37.8851C166.258 26.9365 169.426 15.9251 172.385 4.85663L172.326 4.87837C171.362 5.22399 167.775 6.03077 166.73 6.19663C164.255 6.58948 155.026 9.6876 153.382 8.90543C153.207 8.70779 153.126 8.50529 153.062 8.25215C152.919 7.67766 152.728 6.47085 153.077 5.9639C153.711 5.04423 165.689 2.51992 167.609 2.04C170.262 1.37676 172.974 0.39092 175.671 0Z" fill="#004AAD"/>
<path d="M96.6175 40.0701C101.885 39.1688 109.135 42.2106 112.82 45.8373C113.77 46.7724 114.648 48.0047 113.505 49.1596C111.823 50.8602 109.847 48.1697 108.536 47.2539C100.632 41.8496 92.1538 42.9121 85.2934 49.3263C81.3209 53.0659 77.3854 56.8446 73.4874 60.6618C67.7125 66.2147 61.8039 70.2686 61.9599 79.2935C62.1303 89.1505 68.9037 96.3693 78.9736 96.567C87.0333 96.7253 90.3176 92.8859 95.8033 87.6423L104.133 79.7184C105.189 78.7418 106.221 77.74 107.229 76.7138C108.264 75.6482 110.881 72.3218 112.709 73.6799C113.546 74.3942 113.916 75.5858 113.069 76.4255C109.231 80.2339 105.232 83.9026 101.321 87.6431C97.6598 91.1438 93.9874 95.2057 89.6925 97.8944C87.6 99.2044 83.5996 100.182 81.1934 100.423C75.7241 100.964 70.2619 99.3266 65.9925 95.8655C61.5075 92.1678 58.8143 87.254 58.1443 81.472C56.8023 69.8892 63.9783 64.3918 71.3901 57.2339C73.8696 54.8122 76.3756 52.4179 78.908 50.0514C84.8143 44.4206 87.9355 40.8705 96.6175 40.0701Z" fill="#004AAD"/>
<path d="M133.925 4.76042C139.501 4.42506 144.981 6.33414 149.141 10.0623C153.307 13.7771 155.822 18.9972 156.132 24.5697C156.441 31.1107 154.52 36.3987 149.915 41.0522C146.694 44.3064 143.319 47.4589 140.027 50.6384C137.944 52.6655 135.85 54.682 133.747 56.6881C128.927 61.27 124.464 64.9171 117.426 65.2723C111.482 65.6036 106.008 63.6191 101.588 59.6306C99.6226 57.8575 99.82 55.0499 102.897 55.8516C103.645 56.0466 105.098 57.5675 105.811 58.1302C108.604 60.336 112.416 61.453 115.954 61.4592C123.765 61.6677 128.343 56.6169 133.522 51.5727C136.325 49.0913 138.934 46.3131 141.654 43.7533C147.829 37.9425 153.586 33.0314 152.308 23.5536C151.738 19.0349 149.355 14.9424 145.707 12.2151C142.541 9.8026 140.16 8.91615 136.233 8.58929C127.355 7.85015 123.041 13.1365 117.161 18.788L107.152 28.4795C106.341 29.2784 103.862 31.9144 102.955 31.9083C100.618 31.8926 100.128 29.8881 101.728 28.3036C104.085 25.9692 106.328 23.6845 108.722 21.503C114.149 16.5583 119.032 10.621 125.415 6.91481C127.68 5.62149 131.401 4.92451 133.925 4.76042Z" fill="#004AAD"/>
<path d="M133.531 17.2068C136.301 16.9529 138.893 17.6218 140.936 19.5705C142.842 21.3889 143.536 23.2009 143.598 25.8104C143.81 28.4861 142.488 32.4221 139.431 32.7552C138.067 32.904 137.07 30.7311 138.365 29.5547C139.129 28.8614 139.928 27.1392 139.959 26.1632C139.993 24.8196 139.489 23.5181 138.557 22.5487C137.54 21.4789 136.371 21.1047 134.927 21.062C132.488 20.9901 130.977 22.8454 129.347 24.4355C125.913 27.4536 122.675 31.0781 119.27 34.1595C116.613 36.5641 114.942 33.223 115.88 32.1167C117.125 30.6485 119.716 28.3449 121.198 26.9114C122.796 25.3709 124.384 23.8208 125.963 22.2613C128.432 19.8263 129.993 17.9403 133.531 17.2068Z" fill="#004AAD"/>
<path d="M94.9139 71.3713C96.2805 71.3013 97.8141 71.9462 97.5363 73.6023C97.478 73.95 96.6603 74.8555 96.3822 75.1295C94.8934 76.5961 93.3266 77.963 91.8296 79.4266C90.2068 81.022 88.5694 82.6024 86.9178 84.168C85.8469 85.1921 84.8773 86.1539 83.7123 87.0764C78.859 90.9196 72.1679 88.9173 70.0585 83.1494C69.3893 81.3195 69.4693 79.9138 69.7852 78.0209C70.6022 75.3212 73.1003 70.7774 75.6047 75.0606C75.1343 76.2838 74.3067 77.3142 73.7754 78.5055C73.2566 79.6686 73.2428 80.871 73.7129 82.0548C74.2058 83.2958 75.1705 84.4111 76.4114 84.938C77.5786 85.4335 78.8377 85.3712 79.984 84.8521C82.2086 83.8445 89.5787 76.3244 91.8139 74.0982C92.741 73.1748 93.6889 71.873 94.9139 71.3713Z" fill="#004AAD"/>
</g>
<use xlink:href="#pattern0_363_2_inner" transform="translate(-105.46 110.577)"/>
<use xlink:href="#pattern0_363_2_inner" transform="translate(105.46 110.577)"/>
</pattern>
</defs>
</svg>
